<svg xmlns="http://www.w3.org/2000/svg" xml:space="preserve" viewBox="0 0 2560 1440"><defs><clipPath id="a" clipPathUnits="userSpaceOnUse"><path d="M0 1080h1920V0H0Z"/></clipPath></defs><path d="M904.975 549.835h.043v.022h-.043z" style="fill:#006c46;fill-opacity:1;fill-rule:nonzero;stroke:none" transform="matrix(1.33333 0 0 -1.33333 0 1440)"/><path d="m0 0-.194-.324h.345V0Z" style="fill:#006c46;fill-opacity:1;fill-rule:nonzero;stroke:none" transform="matrix(1.33333 0 0 -1.33333 1146.185 664.808)"/><path d="M0 0v-.324h.346L.151 0Z" style="fill:#006c46;fill-opacity:1;fill-rule:nonzero;stroke:none" transform="matrix(1.33333 0 0 -1.33333 1426.886 664.808)"/><g clip-path="url(#a)" transform="matrix(1.33333 0 0 -1.33333 0 1440)"><path d="M0 0v-.065C0-.043-.022-.022-.022 0Z" style="fill:#006c46;fill-opacity:1;fill-rule:nonzero;stroke:none" transform="translate(1061.491 470.171)"/><path d="M904.975 549.835h.043v.022h-.043z" style="fill:#006c46;fill-opacity:1;fill-rule:nonzero;stroke:none"/><path d="M0 0v-.065C0-.043-.022-.022-.022 0Z" style="fill:#006c46;fill-opacity:1;fill-rule:nonzero;stroke:none" transform="translate(1061.491 470.171)"/><path d="M0 0h-.065v3.828Z" style="fill:#006c46;fill-opacity:1;fill-rule:nonzero;stroke:none" transform="translate(876.497 615.322)"/><path d="M0 0h-.043l.021.022z" style="fill:#006c46;fill-opacity:1;fill-rule:nonzero;stroke:none" transform="translate(876.562 611.623)"/><path d="M0 0c-.411 0-.822-.022-1.233-.022a281 281 0 0 0-4.304-.086V0Z" style="fill:#006c46;fill-opacity:1;fill-rule:nonzero;stroke:none" transform="translate(882.034 615.322)"/><path d="M0 0v-.324h-.346L-.151 0Z" style="fill:#006c46;fill-opacity:1;fill-rule:nonzero;stroke:none" transform="translate(859.79 581.394)"/><path d="M0 0h-.346v.324h.151z" style="fill:#006c46;fill-opacity:1;fill-rule:nonzero;stroke:none" transform="translate(1070.511 581.07)"/><path d="M0 0v-.108c1.428.021 2.877.043 4.304.086.411 0 .822.022 1.233.022Z" style="fill:#006c46;fill-opacity:1;fill-rule:nonzero;stroke:none" transform="translate(876.497 615.322)"/><path d="m0 0-.065-.065V0Z" style="fill:#006c46;fill-opacity:1;fill-rule:nonzero;stroke:none" transform="translate(771.201 344.837)"/><path d="m0 0-.043-2.444-.368-17.11-.086-4.347c-3.007-.043-6.014-.13-9.02-.238-5.17-.13-10.34-.281-15.487-.455l.086 4.327.324 16.633.065 2.942c.347 1.601 1.255 2.855 2.358 3.288.022 0 .043.043.065.043a.46.46 0 0 0 .216.086c.346.044.692.044 1.038.087h.022c5.429.368 10.902.735 16.353 1.06l1.881.065C-1.492 3.591-.627 2.466-.216.973-.108.671-.043.346 0 0" style="fill:#164927;fill-opacity:1;fill-rule:nonzero;stroke:none" transform="translate(824.433 628.322)"/><path d="m0 0-.584-21.734-1.428-.07s-.021.023-.043 0c-7.203-.328-14.406-.632-21.608-1.006l.54 21.5.022.889c.022.117.043.257.065.351.021.14.043.234.086.374.346 1.264 1.212 2.27 2.272 2.667.021 0 .064.024.086.024s.043.023.065.023a.7.7 0 0 0 .216.047l.325.07c.108.047.238.047.346.047h.043c5.191.327 10.404.678 15.617 1.006.216.023.433.023.649.046.065 0 .108 0 .173-.023h.022c.108-.023.238-.047.346-.093h.043c.022 0 .043 0 .065-.024 1.103-.281 1.968-1.216 2.379-2.433.108-.257.173-.515.217-.795C-.022.585 0 .328 0 0" style="fill:#164927;fill-opacity:1;fill-rule:nonzero;stroke:none" transform="translate(781.562 624.968)"/><path d="M0 0c0-.023.022-.047 0-.07l-.022-1.848-.411-19.839h-.021c-.238-.024-.498-.024-.757-.047-1.471-.094-2.942-.141-4.413-.258a1350 1350 0 0 1-17.196-.935l.519 20.587v.047l.022.889v.023c.022.117.043.234.065.328.021.14.043.234.086.374.346 1.264 1.212 2.27 2.271 2.667.022 0 .065.024.087.024s.043.023.065.023c.065.024.13.047.195.047h.021c.325.023.671.047 1.017.094h.043c4.78.397 9.582.818 14.427 1.193l.822.07c.022 0 .044 0 .087-.024h.043c.108-.023.238-.046.346-.093h.044c.021 0 .043 0 .064-.023C-1.492 2.948-.627 2.012-.216.795A3.3 3.3 0 0 0 0 0" style="fill:#164927;fill-opacity:1;fill-rule:nonzero;stroke:none" transform="translate(747.905 623.401)"/><path d="M0 0v-.086l-.022-.995-.54-19.381h-.022c-1.687-.087-3.374-.173-5.061-.303-1.601-.086-3.18-.151-4.716-.281h-.043c-4.997-.281-9.972-.606-14.903-.909a301 301 0 0 0 4.499 17.283 321 321 0 0 0 2.184 7.138c1.363.108 2.726.238 4.067.346 3.353.346 6.705.627 10.08.908h.021c.022.022.065.022.108.022.282.022.584.043.887.065h.022c.021 0 .043 0 .065-.022h.043c.108-.021.26-.043.368-.065h.043c.022 0 .043 0 .065-.043 1.189-.281 2.12-1.211 2.552-2.422.13-.26.195-.52.238-.822 0-.022.022-.044 0-.065C-.022.238-.022.108 0 0" style="fill:#164927;fill-opacity:1;fill-rule:nonzero;stroke:none" transform="translate(707.478 619.691)"/><path d="M0 0v.043C-1.99.065-4.002.108-6.013.13l-4.845 19.683h-2.228L-8.501.152q-25.697.324-51.977.324c-17.196 0-34.197-.108-51.026-.303l4.586 19.64h-2.228L-113.991.13c-2.336-.022-4.651-.043-6.987-.087v-.065a5189 5189 0 0 1-36.793-.454c-.584 0-1.168-.021-1.752-.021l.065.108h-.541l-1.319-.022.022.022 3.698 6.034 2.683 4.37 1.514 2.487h.021l2.661 4.348 4.694 7.636c.324.021.648.021.973.021 28.357.541 56.801.822 84.552.822h.044c27.751 0 56.195-.281 84.552-.822.324 0 .649 0 .973-.021L40.34-.389h-.887l.065-.108c-.562 0-1.168.021-1.73.021C25.199-.281 12.589-.108 0 0m-114.618-14.254.67 3.201 1.449 6.814.13.497.065.368c17.023.303 34.306.454 51.869.454 17.867 0 35.452-.173 52.756-.476l.065-.346.108-.497 1.449-6.814.671-3.201zm110.011-3.591 1.535-7.16.022-.021v-.022l.303-1.514.433-1.99h-115.354l.432 2.012.325 1.535 1.536 7.16zM.497-43.65c-40.253-.021-80.486-.021-120.718-.043.303 1.947.649 3.915 1.039 5.927a183 183 0 0 0 1.103 5.624H-1.731c.39-1.774.758-3.569 1.125-5.408q.585-3.115 1.103-6.1m4.564-14.297h-129.932c1.687 3.288 3.006 7.094 4.023 11.075H1.038c1.017-3.981 2.336-7.787 4.023-11.075m2.38-3.591 7.57-11.075h-149.832l7.571 11.075zm14.427-30.174h-163.567a496 496 0 0 1 5.126 14.947H16.763a561 561 0 0 1 5.105-14.947m1.557-4.239a433 433 0 0 1 3.851-10.123 348 348 0 0 1 2.314-5.754H-149.4a348 348 0 0 1 2.315 5.754 553 553 0 0 1 3.85 10.123zm14.774-35.82h-196.208a520 520 0 0 1 6.857 15.66H31.342a520 520 0 0 1 6.857-15.66m-1.687 19.943v-.065c0 .022-.022.043-.022.065zm5.364-27.817c.519-1.103 1.038-2.184 1.557-3.266a977 977 0 0 1 5.667-10.382h-218.01a977 977 0 0 1 5.667 10.382c.519 1.082 1.038 2.163 1.557 3.266.433.866.844 1.731 1.233 2.618H40.643c.389-.887.8-1.752 1.233-2.618m8.501.152c17.563-25.178 16.698-24.182 17.693-25.502 2.747-3.591 9.561-12.308 23.772-27.405a666 666 0 0 1 40.902-39.8l.065-17.802a1012 1012 0 0 0-11.269-.649v18.494c0 .627-44.883 48.452-55.352 64.156-1.427 1.989-4.282 6.834-7.895 13.389-.021.021-.021.043-.043.064-2.574 4.651-5.516 10.167-8.609 16.115.217-.346.476-.692.736-1.06M-60.456-258.221l-173.604 7.181c4.456 4.953 9.43 11.421 14.795 18.905 52.929-.973 105.858-1.968 158.787-2.963 53.383.886 106.766 1.795 160.15 2.682 5.234-7.355 10.144-13.714 14.535-18.581zm-4.846 80.313-117.149 1.514a530 530 0 0 1 5.213 8.674c1.212 2.033 2.444 4.153 3.721 6.316.086.173.173.324.259.475.152.26.303.52.433.779H52.994c.238-.411.476-.843.714-1.254a695 695 0 0 1 9.106-15.271zm147.756-29.309c4.261-6.424 8.393-12.611 12.394-18.343-51.782-.67-103.565-1.341-155.326-1.989-51.177.93-102.376 1.903-153.553 2.855a1156 1156 0 0 1 11.529 17.153c47.349-.585 94.675-1.169 142.024-1.774 47.63.714 95.303 1.406 142.932 2.098m-142.932 5.429-137.308 1.428c1.773 2.703 3.569 5.45 5.364 8.197a691 691 0 0 1 5.516 8.609l123.551-1.6 130.214 1.925a1380 1380 0 0 1 5.732-8.934 1980 1980 0 0 1 5.537-8.457zm-180.872-30.369v-18.515c-3.742.216-7.505.433-11.269.67l.065 17.802a666 666 0 0 1 40.903 39.8c14.211 15.097 21.003 23.814 23.771 27.405.974 1.32.13.324 17.694 25.502.259.368.497.735.757 1.082a898 898 0 0 0-8.609-16.137c-.519-.93-1.017-1.817-1.514-2.682-2.92-5.213-5.213-9.063-6.446-10.771-10.469-15.704-55.352-63.529-55.352-64.156M45.185-.606h.152l.194-.324h-.346ZM-165.19-.93h-.346l.195.324h.151zM1.471-32.121c46.57-.021 93.118-.021 139.687-.043 0 0 0 .022-.021.022.086 0 .195-.022.281-.022a17288 17288 0 0 0-16.871 29.763c-26.324.757-52.648 1.384-78.972 1.795l-.022.022L28.92 26.475l-1.406 2.293-.022.022-.022-.022c-.389.022-.8.022-1.189.022-.779.022-1.471.043-2.142.043-28.357.541-56.822.822-84.595.822h-.044c-27.773 0-56.238-.281-84.595-.822-.671 0-1.363-.021-2.142-.043-.389 0-.8 0-1.189-.022l-.022.022-.022-.022-1.406-2.293-5.97-9.712-2.682-4.369-1.514-2.466-2.682-4.369-2.055-3.353-1.665-2.682-.065-.108-.022-.043a5869 5869 0 0 1-78.02-1.774c-5.624-9.928-11.226-19.857-16.85-29.763h141.397v.022h.043v-.022h-.043c-1.687-8.371-4.153-18.97-6.424-22.539-4.24-5.905-16.374-8.522-16.374-9.171 0-.281.821-2.639.93-5.992-1.428-11.29-5.559-19.575-10.059-28.184-1.254-2.314-2.595-4.607-3.893-7.224-2.66-5.581-10.209-19.056-18.407-32.186-6.251-9.841-12.481-19.705-17.088-25.632-15.314-19.64-24.118-24.485-66.686-66.664-.303-.303-.714-.692-.995-.995 0-9.192-.021-18.407-.021-27.621 6.251-.368 12.523-.714 18.796-1.082h.108l179.661-7.441h.021l178.406 7.376.022-.022 21.219 1.169c-.022 9.214-.022 18.429-.022 27.621-.303.303-.714.692-1.016.995-42.569 42.179-51.394 47.024-66.665 66.664-4.607 5.927-10.836 15.791-17.109 25.632-8.176 13.13-15.725 26.605-18.386 32.186-1.298 2.617-2.639 4.91-3.915 7.224-4.456 8.566-8.587 16.829-10.036 28.055.086 3.417.93 5.84.93 6.121 0 .649-12.135 3.266-16.374 9.171C4.348-51.134 1.882-40.535.195-32.164v.043z" style="fill:#164927;fill-opacity:1;fill-rule:nonzero;stroke:none" transform="translate(1024.98 582)"/><path d="m0 0-.735.043" style="fill:#164927;fill-opacity:1;fill-rule:nonzero;stroke:none" transform="translate(1236.501 632.44)"/><path d="M0 0h-.022C-2.79.087-5.537.173-8.328.238h-.021C-24.723.649-41.162.844-57.58.844h-.432c-2.855 0-5.71 0-8.544-.022h-2.898a2011 2011 0 0 1-37.94-.605c-2.79-.065-5.602-.152-8.392-.217a2206 2206 0 0 1-32.1-1.19c-1.946-.086-3.893-.151-5.818-.259l-4.218 1.838-1.774.779v3.937l2.769 1.103 2.985 1.211c.454.065.887.065 1.363.087a2029 2029 0 0 0 94.567 2.228h.432c31.364 0 63.182-.757 94.568-2.228.476-.022.908-.022 1.362-.087l2.985-1.211 2.769-1.103V1.168l-2.25-.973-3.742-1.644C25.502-.843 12.783-.346 0 0m26.778-7.354a11.6 11.6 0 0 1-.865-2.985 1.6 1.6 0 0 1-.043-.325v-.021c-4.478.13-8.955.216-13.433.324-.216 0-.432 0-.649.022l-3.46.065a11.7 11.7 0 0 1-1.017 3.331c-.26.562-.562 1.103-.908 1.6 1.665-.065 3.352-.108 5.018-.173 5.342-.216 10.663-.389 15.963-.605a8 8 0 0 1-.606-1.233M25.74-59.526c-5.689.108-11.421.216-17.218.303V-14.6c1.255-.022 2.531-.065 3.829-.087h.086c4.456-.108 8.89-.194 13.303-.303zM-16.05-6.597c-.562-1.017-.93-2.12-1.168-3.288l-4.542.065h-.497c-3.98.043-7.96.086-11.94.108h-.692a10 10 0 0 1-.173.736l-.022.021a10.8 10.8 0 0 1-1.038 2.531c-.39.714-.866 1.363-1.406 1.968h.887c7.224-.086 14.47-.173 21.673-.346a9 9 0 0 1-1.082-1.795m-1.362-52.324c-5.667.065-11.378.109-17.088.13h-.022v44.753h.303c5.624-.043 11.205-.086 16.807-.173zM-78.366-4.564v-.021a12 12 0 0 1-1.276-1.839 11 11 0 0 1-1.233-3.288c-5.927-.043-11.81-.086-17.715-.173a12.2 12.2 0 0 1-1.168 3.288c-.303.627-.649 1.233-1.082 1.774 7.289.194 14.6.281 21.89.367h.692zm-2.726-54.227h-.021c-5.775-.021-11.529-.065-17.239-.13v44.71c5.732.087 11.485.13 17.26.173zm-42.027 51.848a11.6 11.6 0 0 1-1.016-3.353c-.563 0-1.147 0-1.709-.021h-.411c-5.105-.087-10.188-.217-15.293-.347h-.13c0 .109-.021.217-.043.325a11.6 11.6 0 0 1-.865 2.985 8 8 0 0 1-.606 1.233c5.365.194 10.772.433 16.18.605 1.6.044 3.201.108 4.801.173a10.6 10.6 0 0 1-.908-1.6m-1.168-52.28a4271 4271 0 0 1-17.261-.303v44.536c5.083.13 10.188.26 15.271.347h.108c.606.021 1.233.021 1.839.043h.043zm338.182 16.799-.427 1.111c-1.952 5.071-2.937 7.602-4.001 10.079-1.06 2.466-2.315 5.127-2.315 5.127-.8 1.665-1.6 3.266-2.401 4.845l-.93-.39c-2.855-1.276-5.061-3.893-5.732-5.991l.13-3.894.065-1.687c.13-3.136.216-5.97.303-8.025-.974.087-1.947.152-2.942.217-3.72.281-7.462.54-11.204.779-1.125.086-2.272.151-3.418.237-.303 5.321-.8 10.642-1.082 15.942v.065c-2.487 7.873-20.31 11.031-22.127.605-.022-.086-.022-.194-.043-.281.129-3.569.238-7.138.346-10.166l.086-2.531v-.238l.022-.562c0-.498.021-.973.043-1.406-1.319.108-2.66.173-4.002.259-.886.044-1.773.109-2.66.152a199 199 0 0 1-3.612.216c-.108 0-.238.022-.346.022l-.519 17.715c-3.267 7.83-20.679 10.274-23.123-.325.195-6.272.389-12.545.497-16.157-.021.021-.043 0-.043 0-1.341.086-2.682.151-4.023.216-4.326.216-8.631.433-12.935.627l-1.363.065h-.108c-.216 5.927-.259 12.07-.519 18.235-1.557 8.133-21.868 11.853-24.356.345.195-6.921.39-13.713.52-17.542-.887.044-1.796.087-2.683.109-3.049.129-6.121.238-9.192.324h-.022c-.108 2.314-.216 4.607-.281 6.943l-.217 11.378c-1.578 8.435-22.819 12.481-25.328.346l.302-17.823c-.735.021-1.47.043-2.206.043-.151.021-.303.021-.476.021-3.093.109-6.186.174-9.301.26l-2.184.043h-.022v18.343c0 .887.086 1.752.26 2.574v.043c.021.13.065.259.108.389q.097.487.259.974v.021c.238.693.476 1.277.692 1.709.087.173.476.952 1.168 1.882.238.346.455.606.606.8a132 132 0 0 1 2.877-.13c.26 0 1.536-.064 1.795-.064l10.772 5.126c.022.346.043.692.043 1.06a2172 2172 0 0 0 152.147-12.74l-2.466 4.65A2183 2183 0 0 1 48.603 3.937c.022 1.255.043 2.509.043 3.785-3.482 1.622-6.965 3.266-10.469 4.91h-.065c-.151.022-.346.022-.519.022-.129.022-.302.022-.454.022-31.429 1.449-63.29 2.206-94.719 2.206h-.432c-31.45-.173-63.03-.909-94.719-2.206a16 16 0 0 0-1.038-.044c-2.098-.995-4.196-1.99-6.316-2.963l-.346-.173-3.807-1.774c.022-1.255.043-2.509.043-3.764A2142 2142 0 0 1-312.902-8.479l-2.444-4.65A2130 2130 0 0 0-164.238-.368v-1.038h.022l.021-.043 1.688-.8.216-.108 7.614-3.656.973-.454.26-.108c.778.021 1.535.064 2.292.086l2.207.13c.129-.173.259-.324.367-.476q.26-.324.455-.649c1.6-2.444 2.141-5.083 2.249-7.289v-18.343h-.022l-2.184-.043c-3.115-.086-6.208-.151-9.301-.26-.173 0-.325 0-.476-.021-.735 0-1.471-.022-2.206-.043l.303 17.823c-2.51 12.135-23.75 8.089-25.329-.346l-.217-11.378c-.065-2.336-.173-4.629-.281-6.943h-.022a645 645 0 0 1-9.192-.324c-.887-.022-1.796-.065-2.683-.109.13 3.829.325 10.621.52 17.542-2.488 11.508-22.799 7.788-24.356-.345-.259-6.165-.303-12.308-.519-18.235h-.108l-1.363-.065c-4.304-.194-8.609-.411-12.935-.627-1.341-.065-2.682-.13-4.023-.216 0 0-.022.021-.043 0 .108 3.612.303 9.885.497 16.157-2.444 10.599-19.856 8.155-23.122.325l-.52-17.715c-.108 0-.237-.022-.346-.022a199 199 0 0 1-3.612-.216c-.887-.043-1.773-.108-2.66-.152-1.341-.086-2.683-.151-4.002-.259.022.433.043.908.043 1.406l.022.562v.238l.087 2.531c.108 3.028.216 6.597.346 10.166-.022.087-.022.195-.044.281-1.817 10.426-19.64 7.268-22.127-.605v-.065c-.282-5.3-.779-10.621-1.082-15.942-1.146-.086-2.293-.151-3.418-.237a970 970 0 0 1-11.204-.779c-.995-.065-1.968-.13-2.942-.217.087 2.055.173 4.889.303 8.025l.065 1.687.13 3.894c-.671 2.098-2.877 4.715-5.732 5.991a140 140 0 0 1-4.672-9.668 132 132 0 0 1-4.24-10.945 88 88 0 0 1-.951-2.877c-.174-.541-.325-1.081-.498-1.6.173.021.324.021.498.043 4.628.346 9.257.692 13.908 1.038 1.341.086 2.66.195 4.001.281 3.721.281 7.463.519 11.205.779 1.341.086 2.682.194 4.023.259 7.354.498 14.752.974 22.149 1.406 1.32.087 2.661.173 4.002.26.887.043 1.774.108 2.66.151 1.341.087 2.683.173 4.024.238 7.7.455 15.4.865 23.122 1.255 1.341.065 2.682.151 4.023.216 4.305.195 8.631.411 12.935.606.563.043 1.147.065 1.709.086.779.043 1.536.065 2.315.108 7.332.347 14.708.649 22.062.93 3.959.173 7.895.325 11.897.433.865.043 1.73.065 2.595.086 1.406.065 2.834.109 4.262.152 3.828.151 7.678.26 11.528.368 2.228.086 4.456.151 6.706.216.973.021 1.947.065 2.92.086 3.158.087 6.316.174 9.496.26l2.076.043v-22.56l.065-3.829h5.537c19.165.368 39.086.606 59.202.714 15.444.087 31.039.087 46.527 0a4127 4127 0 0 0 60.24-.735l4.369-.087v26.497l2.077-.043c3.179-.086 6.337-.173 9.495-.26.973-.021 1.947-.065 2.92-.086 2.25-.065 4.478-.13 6.706-.216 3.85-.108 7.7-.217 11.528-.368 1.428-.043 2.856-.087 4.262-.152.865-.021 1.73-.043 2.595-.086 4.002-.108 7.939-.26 11.897-.433 7.354-.281 14.73-.583 22.063-.93.778-.043 1.535-.065 2.314-.108a45 45 0 0 0 1.709-.086c4.304-.195 8.63-.411 12.935-.606 1.341-.065 2.682-.151 4.023-.216 7.722-.39 15.422-.8 23.123-1.255 1.341-.065 2.682-.151 4.023-.238.887-.043 1.773-.108 2.66-.151 1.341-.087 2.682-.173 4.002-.26 7.397-.432 14.795-.908 22.149-1.406 1.341-.065 2.682-.173 4.023-.259 3.742-.26 7.484-.498 11.205-.779 1.341-.086 2.66-.195 4.001-.281l13-.974c.087 0 .151 0 .238-.021l.454-.022.736-.043 1.329-.063z" style="fill:#164927;fill-opacity:1;fill-rule:nonzero;stroke:none" transform="translate(1022.297 679.162)"/><path d="M0 0v-.368l-.022-2.66-.151-11.789-.065-5.797-.065-4.326-6.835-.129c-.973 0-1.947-.044-2.92-.044-2.25-.043-4.477-.086-6.705-.151a671 671 0 0 1-9.453-.195l.108 4.348.39 18.429.043 2.076c.281 1.774 1.233 3.288 2.444 3.742.584.044 1.147.044 1.731.087.173.043.367.043.54.043 3.851.238 7.679.39 11.529.584 1.774.13 3.569.238 5.343.303.021 0 .065.022.086 0 .217 0 .455 0 .671.022C-1.514 4.045-.043 2.249 0 0" style="fill:#164927;fill-opacity:1;fill-rule:nonzero;stroke:none" transform="translate(861.983 630.139)"/><path d="M0 0c-2.358-3.396-4.694-6.792-7.051-10.188-25.611-.822-51.242-1.665-76.874-2.487l-.26-.476-1.925-3.375-1.579-2.811-.887-1.579-1.6-2.812-7.355-13.022h-83.492a297 297 0 0 0 2.444 18.84c.649 3.915 1.32 7.722 2.055 11.378 2.747.151 5.472.303 8.22.432q8.565.454 17.131.844 7.625.389 15.249.714c7.614.367 15.206.692 22.82.995 4.088.173 8.154.346 12.242.497 7.614.303 15.25.584 22.864.844 12.826.432 25.653.843 38.48 1.189h4.65c.152 0 .281.044.433.13C-22.95-.584-11.486-.303 0 0" style="fill:#164927;fill-opacity:1;fill-rule:nonzero;stroke:none" transform="translate(857.44 598.624)"/><path d="M0 0a.83.83 0 0 0-.432-.13h-4.651z" style="fill:#164927;fill-opacity:1;fill-rule:nonzero;stroke:none" transform="translate(823.005 597.737)"/><path d="M0 0c-5.148.173-10.318.325-15.487.454a418 418 0 0 1-9.02.238l-.087 4.348-.367 17.109-.044 2.445c.044.346.109.67.217.973.411 1.492 1.276 2.617 2.379 2.963l1.882-.065a2019 2019 0 0 0 16.352-1.059h.022c.346-.044.692-.044 1.038-.087a.45.45 0 0 0 .217-.087c.021 0 .043-.043.064-.043 1.104-.432 2.012-1.687 2.358-3.288l.065-2.941.324-16.634Z" style="fill:#164927;fill-opacity:1;fill-rule:nonzero;stroke:none" transform="translate(1129.375 603.728)"/><path d="m0 0 .584-21.734 1.428-.07s.021.023.043 0c7.203-.328 14.406-.632 21.608-1.006l-.54 21.5-.022.889c-.022.117-.043.257-.065.351-.021.14-.043.234-.086.374-.346 1.264-1.212 2.27-2.272 2.667-.021 0-.064.024-.086.024s-.043.023-.065.023a.7.7 0 0 1-.216.047l-.325.07c-.108.047-.238.047-.346.047h-.043c-5.191.327-10.404.678-15.617 1.006-.216.023-.433.023-.649.046-.065 0-.108 0-.173-.023h-.022c-.108-.023-.237-.047-.346-.093h-.043c-.022 0-.043 0-.065-.024C1.579 3.813.714 2.878.303 1.661A3.4 3.4 0 0 1 .086.866 3.7 3.7 0 0 1 0 0" style="fill:#164927;fill-opacity:1;fill-rule:nonzero;stroke:none" transform="translate(1147.242 624.968)"/><path d="M0 0c0-.023-.022-.047 0-.07l.022-1.848.411-19.839h.021c.238-.024.498-.024.757-.047 1.471-.094 2.942-.141 4.413-.258 5.753-.28 11.485-.584 17.196-.935L22.301-2.41v.047l-.022.889v.023c-.022.117-.043.234-.065.328-.021.14-.043.234-.086.374-.346 1.264-1.212 2.27-2.272 2.667-.021 0-.064.024-.086.024s-.043.023-.065.023a.6.6 0 0 1-.195.047h-.021c-.325.023-.671.047-1.017.094h-.043c-4.78.397-9.582.818-14.428 1.193l-.821.07c-.022 0-.044 0-.087-.024H3.05c-.108-.023-.238-.046-.346-.093H2.66c-.021 0-.043 0-.064-.023C1.492 2.948.627 2.012.216.795A3.3 3.3 0 0 1 0 0" style="fill:#164927;fill-opacity:1;fill-rule:nonzero;stroke:none" transform="translate(1180.898 623.401)"/><path d="m0 0-2.12.173-.973.065c-4.607.281-9.258.584-13.93.844h-.043c-1.536.129-3.115.194-4.716.281-1.687.129-3.374.216-5.061.303h-.022l-.54 19.38-.022.995v.087c.022.108.022.238.065.367-.022.022 0 .044 0 .065.043.303.108.563.238.822.432 1.212 1.363 2.142 2.552 2.423.022.043.043.043.065.043h.043c.108.022.26.043.368.065h.043c.022.022.043.022.065.022h.022l.887-.065c.043 0 .086 0 .108-.022h.021c3.375-.281 6.727-.562 10.08-.908 1.341-.109 2.704-.238 4.066-.346l1.428-.174z" style="fill:#164927;fill-opacity:1;fill-rule:nonzero;stroke:none" transform="translate(1248.752 597.564)"/><path d="M0 0a686 686 0 0 1-9.452.195c-2.228.065-4.456.108-6.706.151-.973 0-1.946.043-2.92.043l-6.835.13-.065 4.326-.065 5.797-.151 11.788-.022 2.661v.368c.044 2.249 1.514 4.045 3.331 4.174.217-.021.455-.021.671-.021.021.021.065 0 .086 0 1.774-.065 3.569-.173 5.343-.303 3.85-.195 7.679-.346 11.529-.584.173 0 .368 0 .541-.043.584-.044 1.146-.044 1.73-.087 1.211-.454 2.163-1.968 2.444-3.742l.044-2.076.389-18.429z" style="fill:#164927;fill-opacity:1;fill-rule:nonzero;stroke:none" transform="translate(1093.036 604.68)"/><path d="M0 0h-85.072l-7.354 13.021-1.6 2.812-.887 1.579-1.579 2.812-1.925 3.374-.26.476c-25.632.822-51.263 1.666-76.874 2.488-2.357 3.396-4.693 6.792-7.051 10.188 11.486-.303 22.95-.584 34.435-.887a.84.84 0 0 1 .433-.13h4.65c12.827-.346 25.654-.757 38.48-1.19 7.614-.259 15.25-.54 22.864-.843 4.088-.152 8.154-.325 12.242-.498 7.614-.302 15.206-.627 22.82-.995q7.624-.324 15.249-.713 8.566-.39 17.131-.844c2.747-.13 5.473-.281 8.22-.433h1.579c.908-4.131 1.73-8.522 2.466-13.108C-1.103 11.096-.433 5.386 0 0" style="fill:#164927;fill-opacity:1;fill-rule:nonzero;stroke:none" transform="translate(1253.965 561.874)"/><path d="M0 0h-4.651a.83.83 0 0 0-.432.13z" style="fill:#164927;fill-opacity:1;fill-rule:nonzero;stroke:none" transform="translate(1110.881 597.607)"/><path d="M0 0h-9.818v5.75q3.758-.197 6.734 1.654c1.998 1.233 3.515 3.001 4.542 5.302H8.05v-40.897H0Z" style="fill:#1c2a5a;fill-opacity:1;fill-rule:nonzero;stroke:none" transform="translate(909.64 290.46)"/><path d="M0 0q.001 3.22-1.741 5.346-1.737 2.13-4.374 2.129-3.002 0-4.556-1.905-1.56-1.902-1.559-5.57 0-3.191 1.683-5.137t4.432-1.946q2.747 0 4.434 1.961Q-.001-3.192 0 0m-7.518-28.007q-5.132-.001-8.4 2.944-3.268 2.946-3.492 7.742h7.938q-.029-1.909 1.134-3.057 1.167-1.152 3.101-1.151h.393q3.59-.028 5.329 3.45 1.348 2.722 1.684 7.995-3.339-3.45-7.968-3.45-5.469 0-8.96 3.741-3.493 3.74-3.494 9.597 0 6.219 3.956 10.17 3.955 3.952 10.182 3.953 6.929 0 10.534-5.171Q8.023 3.582 8.023-6.369q0-10.959-3.984-16.482c-2.467-3.456-6.041-5.186-10.714-5.186z" style="fill:#1c2a5a;fill-opacity:1;fill-rule:nonzero;stroke:none" transform="translate(952.651 289.239)"/><path d="M0 0q.001-4.657-2.171-7.714-2.174-3.057-8.15-6.872-5.525-3.506-7.545-6.339l-.03-.057H0v-7.068h-27.878v.007q-.001 5.609 2.83 9.617 2.833 4.011 10.659 9.506 3.507 2.44 4.938 4.474A7.7 7.7 0 0 1-8.021.085q0 2.72-1.569 4.376-1.573 1.654-4.153 1.654-2.749 0-4.292-2.076-1.54-2.076-1.43-5.638h-7.881q-.198 6.649 3.492 10.547 3.689 3.9 10.166 3.899 6.033 0 9.875-3.591Q-.001 5.666 0 0" style="fill:#1c2a5a;fill-opacity:1;fill-rule:nonzero;stroke:none" transform="translate(994.877 290.318)"/><path d="M0 0q0 2.385-1.375 3.857-1.373 1.473-3.646 1.472-2.64 0-4.081-1.668-1.445-1.67-1.502-4.755h-7.406q.087 6.255 3.606 9.636 3.52 3.38 9.917 3.38 5.495 0 9.003-3.198Q8.022 5.527 8.023.505q0-4.347-3.648-7.125l-1.092-.729A8.8 8.8 0 0 0 5.75-8.751q3.507-2.722 3.506-8.19 0-6.032-3.8-9.564-3.802-3.537-10.253-3.536-6.648-.001-10.308 3.493-3.66 3.492-3.745 9.943h7.826q.056-3.45 1.557-5.26 1.502-1.809 4.334-1.808 2.75-.001 4.432 1.823Q.981-20.028.982-17.053q0 2.608-1.683 4.206-1.488 1.376-3.76 1.544-1.262.084-2.341.097-1.08.016-1.39-.07v5.947q.336-.058 1.433-.013a31 31 0 0 1 2.327.182q1.908.225 3.029 1.318Q.001-2.496 0 0" style="fill:#1c2a5a;fill-opacity:1;fill-rule:nonzero;stroke:none" transform="translate(1020.723 291.243)"/><path d="m0 0 52.045-15.312-4.777-16.227-52.029 15.325-6.562-22.322-13.194 3.886 17.913 60.855 13.208-3.902z" style="fill:#1c2a5a;fill-opacity:1;fill-rule:nonzero;stroke:none" transform="translate(1314.754 444.288)"/><path d="m0 0-62.229 27.385 6.859 15.601L6.875 15.614Z" style="fill:#1c2a5a;fill-opacity:1;fill-rule:nonzero;stroke:none" transform="translate(1341.704 360.318)"/><path d="m0 0 8.97 14.91.557-.324c3.281-1.972 6.65-2.049 10.107-.186 3.472 1.862 6.865 5.554 10.178 11.061 2.554 4.252 3.898 7.906 4.047 10.962.149 3.07-.911 5.277-3.194 6.65q-2.89 1.745-5.596.299c-1.818-.963-4.33-3.598-7.58-7.916l-7.264-9.715C4.884 18.649-.189 14.118-4.991 12.166c-4.774-1.984-9.579-1.491-14.416 1.418-5.708 3.427-8.822 8.807-9.345 16.109-.493 7.317 1.782 15.177 6.873 23.639 5.478 9.088 11.443 15.161 17.941 18.26 6.453 3.072 12.626 2.86 18.52-.68l.47-.29L6.326 56.14c-3.12 1.419-6.097 1.371-8.99-.138-2.865-1.511-5.645-4.485-8.311-8.908-2.458-4.11-3.795-7.632-3.983-10.597-.187-2.95.774-5.093 2.901-6.355 1.697-1.033 3.327-1.12 4.919-.263 1.593.858 4.248 3.706 7.953 8.545l7.669 10.134c5.292 6.993 10.387 11.389 15.27 13.205 4.871 1.861 9.844 1.227 14.881-1.796 6.463-3.909 9.831-9.509 10.016-16.794.228-7.316-2.725-16.01-8.848-26.154C33.987 7.389 27.754.992 21.051-2.082 14.393-5.143 7.776-4.671 1.228-.728Z" style="fill:#1c2a5a;fill-opacity:1;fill-rule:nonzero;stroke:none" transform="translate(1281.006 299.442)"/><path d="m0 0 13.109 14.123c3.458 3.743 5.421 6.766 5.953 9.139.472 2.361-.289 4.491-2.415 6.424-1.996 1.897-4.071 2.487-6.195 1.829s-5.166-3.157-9.15-7.417l-12.626-13.589Zm16.94-39.05-49.794 46.3L-4.44 37.86c6.211 6.652 11.824 10.521 16.931 11.634 5.094 1.157 9.903-.425 14.503-4.692 2.941-2.71 4.816-5.823 5.712-9.373.88-3.593.584-7.112-.814-10.605 2.984 1.352 5.541 1.842 7.746 1.466 2.16-.389 5.048-2.095 8.636-5.118.353-.297.848-.705 1.455-1.222 6.424-5.477 11.173-8.249 14.245-8.345L50.973-2.42c-.845.19-1.699.468-2.503.891A12.7 12.7 0 0 0 46.155.163l-3.36 3.144c-4.601 4.252-8.143 6.447-10.654 6.574-2.496.14-5.348-1.513-8.539-4.944l-.28-.296L10.199-9.452l18.37-17.078Z" style="fill:#1c2a5a;fill-opacity:1;fill-rule:nonzero;stroke:none" transform="translate(1228.899 267.214)"/><path d="m0 0-39.397 55.397 49.179 35 7.977-11.238-35.293-25.091 6.67-9.35 31.431 22.358 7.992-11.297-31.43-22.328 8.497-11.94 35.278 25.106 8.29-11.647z" style="fill:#1c2a5a;fill-opacity:1;fill-rule:nonzero;stroke:none" transform="translate(1181.934 179.912)"/><path d="m0 0-54.245 50.535 17.195 7.487 37.424-36.9-1.261 52.653 17.063 7.441-.285-74.286Z" style="fill:#1c2a5a;fill-opacity:1;fill-rule:nonzero;stroke:none" transform="translate(1123.163 151.893)"/><path d="m0 0-16.688 65.91 16.543 4.194L16.529 4.18Z" style="fill:#1c2a5a;fill-opacity:1;fill-rule:nonzero;stroke:none" transform="translate(1062.693 131.212)"/><path d="m0 0-7.419 67.573 20.812 2.29 38.992-43.952-5.235 47.646 16.275 1.789 7.418-67.588-20.561-2.263-39.384 44.383 5.274-48.103Z" style="fill:#1c2a5a;fill-opacity:1;fill-rule:nonzero;stroke:none" transform="translate(975.314 119.446)"/><path d="m0 0-3.76-36.352c-.691-6.658.22-11.617 2.729-14.937 2.481-3.29 6.816-5.272 12.989-5.902 3.314-.36 6.219-.162 8.757.491 2.539.681 4.637 1.848 6.326 3.543 1.337 1.28 2.345 2.85 3.052 4.652.692 1.787 1.256 4.623 1.634 8.495l3.76 36.352L52.292-5.39 48.37-43.546c-1.059-10.251-4.778-17.705-11.2-22.379-6.394-4.718-15.281-6.485-26.646-5.3-11.336 1.154-19.65 4.694-24.973 10.609-5.295 5.869-7.425 13.973-6.366 24.208l3.922 38.157z" style="fill:#1c2a5a;fill-opacity:1;fill-rule:nonzero;stroke:none" transform="translate(908.07 192.984)"/><path d="m0 0 27.53 62.173 19.115-8.471L58.301-3.905l19.423 43.856 14.953-6.613L65.146-28.85l-18.911 8.391-11.77 58.155-19.6-44.277Z" style="fill:#1c2a5a;fill-opacity:1;fill-rule:nonzero;stroke:none" transform="translate(766.227 169.97)"/><path d="m0 0 14.664-10.398 4.694 22.431zm-41.004-5.399 65.595 36.824 13.362-9.448-14.036-73.403L8.453-40.451l3.256 15.307-24.405 17.329-13.33-8.215z" style="fill:#1c2a5a;fill-opacity:1;fill-rule:nonzero;stroke:none" transform="translate(731.762 227.21)"/><path d="m0 0 50.194 45.871 14.093-15.422-12.436-57.431L87.195 5.39 98.272-6.689 48.106-52.576 34.152-37.337l12.549 58-35.71-32.679z" style="fill:#1c2a5a;fill-opacity:1;fill-rule:nonzero;stroke:none" transform="translate(635.895 281.394)"/><path d="m0 0 58.608 34.443 10.589-18.014L45.07-37.179l41.333 24.311 8.275-14.101-58.607-34.458-10.444 17.816L49.96 10.496 8.227-14.031Z" style="fill:#1c2a5a;fill-opacity:1;fill-rule:nonzero;stroke:none" transform="translate(587.025 360.09)"/><path d="m0 0-34.945-10.715c-6.38-1.963-10.627-4.733-12.667-8.323-2.07-3.59-2.227-8.326-.382-14.294.974-3.176 2.286-5.792 3.877-7.85 1.62-2.071 3.489-3.54 5.74-4.449a13.15 13.15 0 0 1 5.457-1.009c1.926.061 4.764.682 8.439 1.818l34.945 10.73 4.959-16.157-36.621-11.246C-31.062-64.535-39.401-64-46.2-59.949c-6.828 4.051-11.91 11.546-15.289 22.484-3.336 10.894-3.316 19.923.058 27.118 3.36 7.21 9.957 12.32 19.807 15.331L-4.989 16.23Z" style="fill:#1c2a5a;fill-opacity:1;fill-rule:nonzero;stroke:none" transform="translate(628.14 453.513)"/><path d="m0 0 28.97 1.739 37.137 31.969 1.294-21.602L44.125-6.266l25.283-15.313 1.296-21.515-40.711 27.858-28.971-1.74Z" style="fill:#1c2a5a;fill-opacity:1;fill-rule:nonzero;stroke:none" transform="translate(550.271 516.034)"/><path d="m0 0-28.97 1.739-37.137 31.969-1.294-21.602 23.276-18.372-25.283-15.313-1.296-21.515 40.711 27.858 28.971-1.74z" style="fill:#1c2a5a;fill-opacity:1;fill-rule:nonzero;stroke:none" transform="translate(1378.748 516.034)"/><path d="M0 0c-.808-.72-1.631-1.455-2.439-2.189-.308-1.557-.602-3.115-.911-4.672-.22-.014-.425-.043-.646-.058C-8.8 2.145.264 13.735-.382 23.299c.294.352.602.705.896 1.057C1.792 22.447.969 2.394 0 0m3.687 48.302c-2.644.793-3.672-.735-6.111-1.513-3.246-4.995-1.131-8.389-1.822-12.987-1.454-9.607-7.33-18.789-8.065-28.293-.411-.265-.837-.514-1.248-.779-1.484.647-2.953 1.278-4.437 1.924-4.333 4.305.044 7.875.882 12.561.881 4.95-.72 24.151-7.492 25.634-.456.191-.897.367-1.352.544-1.116-1.087-2.233-2.159-3.335-3.247-1.175-2.835-2.35-5.685-3.54-8.52-3.629-12.017-9.578-23.945-15.19-36.814 7.228-5.832 15.175-3.32 21.801-1.396 1.851-1.145 3.702-2.306 5.567-3.452 5.23-4.657-.235-9.769-1.66-14.94-.117-2.527-.22-5.053-.338-7.58.03-.22.045-.441.059-.661-6.317 1.058-10.503.029-16.424-.103-1.278-1.543-2.571-3.07-3.863-4.613-1.234-2.027-.794-1.939-.676-3.672 2.615-1.47 5.861-1.044 8.226-3.879 1.47-3.055 2.939-6.096 4.408-9.152 2.717-3.908 10.885-6.758 14.146-7.639.999.47 1.558.808 2.557.867 6.125 7.11.852 13.25-1.058 19.626l-.353.309c1.646.117 3.585-3.085 5.862-3.115 1.072-2.541-.382-1.322-.97-4.025l1.411-4.803c4.862-4.305 6.096-2.395 10.297-1.411 3.218 3.643 2.821 10.754-3.32 11.87-.734 2.042-.102 5.759-.029 7.889-2.556 2.159-4.51 3.041-6.816 2.688-1.205 2.512-.03 5.274-.03 7.889.309.352.603.705.897 1.072 4.495-2.409 17.114-14.279 19.038-14.778.367-.515.735-1.043 1.117-1.557-.235-.999-.485-2.013-.72-3.012-4.011-4.539-4.789-6.478-5.024-10.298 4.04-2.982 7.418-.779 11.253-.999 3.129 4.76.176 9.608 1.072 14.235.969 4.995 4.73 10.606 3.908 15.454.205.235.396.47.602.706 2.057-2.233 3.07-4.599 3.878-6.89-3.819-11.268-8.961-22.109-8.961-32.98-2.439-2.527-3.291-1.704-5.641-3.129.147-1.734.294-3.482.455-5.215 2.042-1.895 4.525-4.613 5.186-6.773 3.746-3.496 6.155-2.747 9.137.794-.763 8.256 1.851 16.805 1.102 25.062.294.352.603.719.896 1.072 5.259-6.317 1.278-16.512 2.042-23.49 1.293-2.292 2.586-4.598 3.879-6.89 3.907-2.424 6.272.03 9.842.191 2.747 4.334 5.406 22.241 5.215 27.075 1.778.44 3.585-1.205 5.377-1.499 2.6-.69 9.769 2.762 10.592 6.831 2.497 8.242-12.149 13.868-17.673 14.235a882 882 0 0 1-6.464-1.219c-2.585-2.924-2.835-4.04-3.055-6.508.822-.69 1.66-1.381 2.482-2.086 4.363-4.407-.969-11.635-1.851-16.585-.396-.471-.793-.94-1.19-1.426-2.306 3.864-4.128 20.964-3.511 25.327.632 4.495 3.291 10.018 2.366 14.338-.882 4.172-3.82 5.332-7.39 5.611-.631-1.351-.558-.91-.47-2.012-.396-.485-.793-.955-1.19-1.425-1.792 2.703-.455 9.783-.132 12.81-3.408 2.864-4.128 1.792-7.051 1.689-4.554-6.302-5.333-16.821-6.493-23.578-.441-.029-.867-.073-1.308-.103C7.742-22.432 4.48-15.998-1.455-9.652.896-6.831 3.158-7.301 4.657-8.139c.279-1.557-1.043-3.525-.558-4.98 1.087-3.231 8.916-3.144 11.017-1.998 1.616 1.19 1.866 4.657 2.042 6.743C14-5.553 12.12-4.76 9.343-5.436 8.08-3.57 8.535-2.13 8.888-.206 7.169 1.425 7.11 1.909 5.112 1.763 3.276 5.083 6.816 9.578 8.05 13.192c2.556 7.462 8.374 33.406-4.363 35.11" style="fill:#1c2a5a;fill-opacity:1;fill-rule:evenodd;stroke:none" transform="translate(656.488 788.722)"/><path d="M0 0c1.623-.74 1.804-2.895 1.61-4.66.194-.13.389-.247.583-.364 3.402.909 6.27 2.687 8.153 3.933 2.699.896 2.505 1.428 3.842 2.921.065 1.778.48 3.09-.533 4.414-1.349 2.232-4.075 2.414-6.996 1.882-.117.48-.234.947-.337 1.428 2.959 2.518 7.684 5.478 9.514 8.8 2.168.169 1.558.481 2.726-.869.519-2.908 1.039-5.802 1.545-8.71a2697 2697 0 0 0-.61-10.229c.143-7.126 4.115-13.929 2.713-20.03-.389-1.505.104-.765-1.104-1.778-.532-.376-.986-.259-2.025.039-.505.039-1.025.091-1.544.13-.688 3.492-1.532 9.762-3.648 11.241-.039.156-.077.325-.117.481-1.505-1.039-2.466-2.22-3.141-3.765-.325-.078-.636-.155-.96-.234.194 3.999 2.128 5.53-1.065 8.827C5.841-7.27 5.166-7.815 4.27-9.58c-.506.052-1.025.091-1.544.143C1.298-7.88.779-5.816-.896-4.751-1.493-1.714-1.064-1.779 0 0m30.102 51.962c-.311 1.272-.61 2.544-.908 3.816-1.454 1.817-12.722.87-15.954-.727C8.398 52.637 2.7 45.549.908 41.045c-.48-.104-.947-.221-1.427-.337-1.208 5.685 1.181 10.968 3.647 14.473-1.648 4.349-14.33 8.334-18.575 8.23-2.311-3.064-4.608-6.127-6.906-9.191 2.388-5.413 12.28-16.07 9.411-25.001 1.259-6.386-6.555-10.462-11.592-12.825-5.036-2.349-6.737.78-10.034-2.362-.831-1.181-1.065-2.09-1.116-3.791 4.634-3.257 7.892-8.073 13.071-10.527.948.221 1.909.442 2.856.675 2.155 3.466 5.309 7.088 7.049 10.735.324.065.636.143.96.221.195-.117.39-.247.584-.364.312-13.499-8.658-17.588-15.46-26.337 1.805-4.881 8.775-3.674 12.786-5.05 3.129 1.194 4.349 3.128 6.374 5.036 1.181-.726 2.362-1.466 3.544-2.193-.636-1.908-3.181-3.206-5.063-4.219 1.285-3.842 5.218-3.219 8.399-3.557.155-3.011-2.038-4.816-3.414-6.867.259-.428.532-.869.805-1.31 1.739-2.454 4.711-3.064 7.814-3.207.143-2.505-.273-4.608 1.584-6.685.934-2.31 1.428-2.129 2.803-3.362 4.414 1.155 8.23 3.232 10.788 5.556-1.013 4.686-2.285 10.19-4.946 12.449-.026.83-.065 1.674-.091 2.505 7.477-.247 7.801-7.996 11.722-13.37.363-.091.713-.169 1.064-.26 18.744 6.555-4.362 57.505 5.14 72.303-.947 3.349-1.596 2.842-3.504 4.206C17.225 34.243 3.245 22.392-2.428 14.551c-.506.052-1.025.091-1.544.143l-.468-.117c1.948 17.524 22.418 25.936 34.542 37.385" style="fill:#1c2a5a;fill-opacity:1;fill-rule:evenodd;stroke:none" transform="translate(855.106 892.168)"/><path d="M0 0c.48.116.96.221 1.428.337 7.671-5.659 18.276-13.084 21.561-25.17-1.273-2.674-1.181-5.971-3.09-8.281-5.49-6.244-14.499-1-18.536 1.674C-2.311-19.887-2.843-8.736 0 0" style="fill:#1c2a5a;fill-opacity:1;fill-rule:evenodd;stroke:none" transform="translate(825.895 870.663)"/><path d="M0 0c2.382-1.979 3.037-4.134 4.499-6.151 1.74-2.381 5.81-4.663 6.15-7.486 1.047-8.848-8.607-9.188-11.758-12.691-2.95-6.592-5.899-13.183-8.86-19.788 6.163-1.449 10.964-2.886 14.216 4.664-.39 1.172-.353.68-.038 2.306l2.332-1.109c3.365-6.201 10.574-8.016 6.1-17.191-4.903-1.197-9.856-4.172-15.401-3.529-4.865.567-9.062 5.041-12.49 1.386 2.206-7.99 3.125-32.012 11.318-36.246 2.306.34 9.969-1.891 11.128-3.013 1.172-1.336 1.008-.996.971-2.76-11.167-1.487-15.515-14.998-29.832-8.646-4.437 9.818-3.983 20.115-3.138 31.786.302 4.234 5.129 12.893 2.218 16.661-16.271-24.11-35.857-42.447-60.836-16.17l-.265 1.84.907.719c3.391 1.638 11.054-1.878 14.784-1.336 7.575 1.096 27.198 8.545 32.012 15.615-.466.215-.932.441-1.398.656-4.777-1.84-10.02-2.193-16.637 1.071-1.462 3.188-7.121 13.523-6.314 16.724 2.836.378 6.201 1.525 9.2 1.324 8.142-.529 21.792-8.079 27.526-3.391 1.55 3.265 3.113 6.516 4.663 9.781-.101 3.755 2.861 7.12 4.651 9.78C-11.28-17.292-8.281-9.39-5.281-1.487-3.491-1.021-1.878-.454 0 0" style="fill:#1c2a5a;fill-opacity:1;fill-rule:evenodd;stroke:none" transform="translate(1128.3 937.898)"/><path d="M0 0c-3.408 2.982-2.248 6.434-2.027 8.799C2.395 10.092 5.641 3.378 9.225.411c4.613-3.79 12.399-8.491 17.849-9.725.147-.529.294-1.072.441-1.601.147-.544.293-1.087.441-1.616-.294-.191-.588-.397-.882-.588C21.477-11.576 4.407-3.849 0 0m.352 20.508-.881 1.322c.543.146 1.087.293 1.616.44 5.376.882 10.827-5.479 16.394-5.612 2.248-3.922 3.541-7.389 7.154-7.932.133-1.278-.088-1.484-.146-2.645C14.294-.808 8.197 15.836.352 20.508m47.318-1.602c.837-2.35-.69-8.168.118-12.589-1.837-.691-2.351-.529-3.967-.72-.338.191-.676.382-1.014.588-.822 2.438.059 5.332.75 7.462-1.396 1.939-1.866 2.189-3.218 2.938-3.496-2.204-7.668-4.774-9.108-7.301 2.277-2.865 2.806-1.836 5.127-2.938.338-.191.676-.396 1.029-.587-.059-.25-.103-.486-.162-.735-2.189-.925-3.232-.779-5.127-.867-2.291 1.984-3.746 4.04-5.391 7.198 1.689.867 1.91.955 3.217.867 2.909 1.851 3.805 2.894 3.393 5.421 1.661.029 3.321.088 4.981.132.631 1.895 1.277 3.805 1.91 5.7 2.497-1.513 4.979-3.041 7.462-4.569M37.431-27.795c.881.573 1.763 1.161 2.644 1.749.544 3.951 1.102 7.903 1.646 11.855-1.617 2.644-3.291 5.347-5.26 6.023-.44.984-.867 1.968-1.307 2.938-.103.147-.191.294-.294.441 4.437.822 21.022-4.172 25.914-5.641 4.583 3.731 3.1 9.005 5.024 13.47-2.512 3.041-7.698 5.759-11.121 7.214-1.836 2.776-1.851 3.584-1.88 5.714.294.191.587.397.881.588.235-.059.485-.103.735-.147 4.275-6.905 6.067-7.492 11.253-8.388 6.728 4.774 6.155 11.209 8.403 16.967-.632.647-1.264 1.278-1.91 1.91-4.995 3.232-9.093-1.234-14.793-1.572a8052 8052 0 0 1-17.57 5.479 268 268 0 0 0-1.748 2.645c-1.807 2.394-3.6 4.789-5.406 7.198-3.497-2.791-2.982-7.404-2.953-10.841-2.248-.456-4.334.087-6.302.896-.294-.191-.588-.382-.882-.588a19.06 19.06 0 0 1 7.757-4.995c1.175-2.394 1.131-2.717-.162-4.539-.058-.911-.808-.279-2.056-.735l-6.126 9.255c-.25.044-.485.089-.735.147-4.539-6.096-7.33-7.389-14.954-4.216-.25.059-.485.103-.735.162.25.573.485 1.16.735 1.748 3.657 2.409 4.524 1.072 7.183-.309.779.088 1.557.191 2.336.279 11.385 7.14 9.916 9.873 10.313 18.877-2.248 3.144-3.232 2.88-5.7 3.82-1.528-3.114-3.041-6.243-4.569-9.358-.881-.587-1.763-1.175-2.644-1.748l-.28 6.155-2.482 2.792c-3.261-2.351-3.247-4.789-5.582-6.875-6.391-5.7-10.813-3.746-11.914-13.589-.382-.059-.779-.103-1.161-.147-1.41 3.144-.823 8.917-3.202 10.562-.632.632-1.264 1.264-1.895 1.91l-3.967-4.539c-8.05-3.981-12.222-.279-14.984-9.916l4.672-7.052c1.983-2.159 2.747-1.718 4.833-2.497 2.982 1.866 6.287 3.893 7.345 6.126 1.028.69 2.056 1.366 3.085 2.042-.103-2.394-.206-4.789-.323-7.169 2.291-2.012 6.14-1.63 8.784-1.792.5-.735.985-1.469 1.469-2.204-3.07-1.88-5.023-1.895-7.477-1.146-4.98-3.408-3.202-8.167-4.437-12.442l-5.42-2.336c-5.45-.617-10.298 7.198-15.219 9.578-5.406 8.447-2.836 9.769-10.21 13.5-.397-.043-.793-.088-1.175-.132-4.76-3.834-3.79-8.917-5.024-13.471 4.113-8.094 16.085-11.385 23.989-15.16-.103-.485-.191-.984-.294-1.469-4.804-2.968-9.593-5.935-14.382-8.888-.441.338-.881.676-1.322 1.029.25 3.76.514 7.521.764 11.282-1.351 1.733-1.645 1.777-2.924 2.497-.117-.118-9.739-25.782-10.18-27.677-.528-2.203-.705-5.567 1.587-7.183 8.432-4.995 22.579 20.375 34.493 21.595 7.227 4.877 8.403-1.954 13.765-5.465.529-2.395-.221-1.455-1.337-2.777 3.232-4.157 6.566-4.51 10.239-5.89 2.586 1.307 4.907 2.188 5.876 4.524.191.338.397.69.588 1.028-3.658 6.391-7.301 10.152-12.707 12.487l-.882 1.322c2.174 1.234 3.056 1.411 4.848 1.308C3.291-9.343 2.909-8.139 3.79-5.729a55 55 0 0 0 1.469-.294c9.828-13.133 20.258-19.304 32.172-21.772" style="fill:#1c2a5a;fill-opacity:1;fill-rule:evenodd;stroke:none" transform="translate(1279.342 746.318)"/><path d="M0 0c131.781 0 251.415-53.736 338.093-140.414s140.414-206.312 140.414-338.094C478.507-742.07 263.563-957 0-957c-131.782 0-251.416 53.736-338.093 140.414-86.664 86.663-140.414 206.297-140.414 338.078C-478.507-214.945-263.563 0 0 0m0-15.442c-255.048 0-463.051-208.017-463.051-463.066 0-127.501 52.001-243.253 135.899-327.152C-243.283-889.528-127.502-941.559 0-941.559c255.063 0 463.065 208.004 463.065 463.051 0 127.503-52.03 243.283-135.899 327.167C243.268-67.457 127.502-15.442 0-15.442" style="fill:#1c2a5a;fill-opacity:1;fill-rule:nonzero;stroke:none" transform="translate(965 1013)"/><path d="M0 0c-159.591 0-289.725-130.149-289.725-289.725S-159.591-579.435 0-579.435s289.725 130.134 289.725 289.71S159.591 0 0 0m0 6.956c163.399 0 296.681-133.282 296.681-296.681 0-163.4-133.282-296.681-296.681-296.681-163.4 0-296.681 133.281-296.681 296.681S-163.4 6.956 0 6.956" style="fill:#1c2a5a;fill-opacity:1;fill-rule:nonzero;stroke:none" transform="translate(965 824.219)"/></g></svg>